<?xml version="1.0" encoding="UTF-8"?> <svg xmlns="http://www.w3.org/2000/svg" id="Layer_1" data-name="Layer 1" viewBox="0 0 734 191.93"><defs><style>.cls-1{fill:#404041}</style></defs><path class="cls-1" d="M320 58.23a19.36 19.36 0 00-7.57-1.76c-13.67 0-20.11 13-20.11 29.12v38.15H275.7V44.23h16.58v11.26c1.93-7.39 10.46-12.71 20-12.71 4.35 0 9 1.13 11.27 2.42zm63 18.19c0-12.87-10.3-20-22.53-20s-22.37 8.2-22.37 20zm17.42 13.68h-62.61c0 14.65 14 21.73 24.31 21.73a26 26 0 0020.44-10.47l11.44 10.3c-5.32 7.25-14 13.68-31.87 13.68-25.76 0-41.53-17.53-41.53-41.2s15.3-41.35 39.92-41.35 35.89 13.68 39.27 33.63a42 42 0 01.64 7.72z" transform="translate(.28 -.2)"></path><path class="cls-1" d="M410.37.01h16.73v123.53h-16.73z"></path><path class="cls-1" d="M492.33 87.05h-20.28c-9.82 0-16.74 5-15.61 14 1 7.57 7.08 10.63 15.61 10.63 15.29 0 20.28-7.24 20.28-12.72zm16.58-18.84v55.53h-16.58v-8.69c-5.8 7.88-16.09 10.13-22.53 10.13-18.19 0-30.1-10.62-30.1-24.78 0-19.79 14.81-26.88 30.1-26.88h22.53v-5.31c0-5-1.93-11.9-15.45-11.9-7.56 0-14.49 4-19 10.29l-11.42-10.29a40.88 40.88 0 0130.42-13.69c22.85 0 32 13.84 32 25.59M563 110.06v12.87a17.77 17.77 0 01-9.5 2.41c-9.49 0-17.86-3-23-11.42-4.82-8-4.82-12.39-4.82-24.94V57.76H516V44.23h9.66v-25.1h16.58v25.1H563v13.53h-20.77V89c0 13.19 1.28 18 9.17 21.56a13.79 13.79 0 0011.59-.48m68.88-33.66c0-12.87-10.3-20-22.53-20S587 64.67 587 76.42zm17.38 13.68h-62.6c0 14.65 14 21.73 24.3 21.73a26 26 0 0020.44-10.47l11.43 10.3c-5.31 7.25-14 13.68-31.87 13.68-25.75 0-41.52-17.53-41.52-41.2s15.29-41.35 39.91-41.35 35.89 13.68 39.27 33.63a42 42 0 01.64 7.72zm46.2 21.73c9 0 17.06-4.19 21.25-12.71a32.68 32.68 0 003.54-15A33.83 33.83 0 00716.7 69c-4.19-8.53-12.23-12.55-21.25-12.55-13.52 0-24.62 11.42-24.62 27.67 0 16.1 11.1 27.69 24.62 27.69m-1.61-69c7.89 0 17.55 3.39 22.86 7.73V.2h16.73v123.54H716.7v-6a40.06 40.06 0 01-22.86 7.57c-22.86 0-39.75-17.55-39.75-41.21S671 42.78 693.84 42.78M279.89 188.19h10a13.32 13.32 0 0013.68-13.43c0-7.72-6.11-13.48-13.83-13.48h-9.89zm10-30.7c10 0 17.71 7.43 17.71 17.22s-7.72 17.23-17.86 17.23H276v-34.45z" transform="translate(.28 -.2)"></path><path class="cls-1" d="M360.81 157.29h3.94v34.44h-3.94z"></path><path class="cls-1" d="M448.16 175.11v12.49a21.27 21.27 0 01-12.79 4.53c-10 0-18-7.72-18-17.42s8-17.32 18.15-17.32a19.59 19.59 0 0112.7 4.72l-2.27 3a15.81 15.81 0 00-10.43-4 13.67 13.67 0 10.05 27.31 16.44 16.44 0 009.05-2.9v-10.41z" transform="translate(.28 -.2)"></path><path class="cls-1" d="M503.74 157.29h3.94v34.44h-3.94zm70.6 3.79v30.65h-3.93v-30.65h-11.22v-3.79h26.42v3.79h-11.27z"></path><path class="cls-1" d="M646 162l-7.68 17.46h15.45zm-9.35 21.25l-3.84 8.71h-4.18L644 157.49h4.08l15.4 34.44h-4.27l-3.85-8.71z" transform="translate(.28 -.2)"></path><path class="cls-1" d="M734 187.99v3.74h-19.04v-34.44h3.94v30.7H734z"></path><path d="M83 192a14 14 0 0014-14V57.6a14 14 0 00-28 0v120.48a14 14 0 0014 14" transform="translate(.28 -.2)" fill="#d52028"></path><path d="M221.55 192a14 14 0 0014-14V57.6a14 14 0 10-27.91 0v120.48a14 14 0 0014 14" transform="translate(.28 -.2)" fill="#3cc1dd"></path><path d="M152.27 148.7a14 14 0 0013.95-13.95V14.25a14 14 0 00-27.91 0v120.5a14 14 0 0014 13.95" transform="translate(.28 -.2)" fill="#824198"></path><path d="M13.68 148.7a14 14 0 0014-13.95V14.25a14 14 0 00-27.92 0v120.5a14 14 0 0014 13.95" transform="translate(.28 -.2)" fill="#f8aa29"></path></svg> 